<?xml version="1.0" standalone="no"?>
<!DOCTYPE svg PUBLIC "-//W3C//DTD SVG 20010904//EN"
 "http://www.w3.org/TR/2001/REC-SVG-20010904/DTD/svg10.dtd">
<svg version="1.0" xmlns="http://www.w3.org/2000/svg"
 width="603.000000pt" height="414.000000pt" viewBox="0 0 603.000000 414.000000"
 preserveAspectRatio="xMidYMid meet">

<g transform="translate(0.000000,414.000000) scale(0.100000,-0.100000)"
fill="#000000" stroke="none">
<path d="M887 3609 c-153 -22 -276 -146 -307 -308 -14 -77 -14 -2357 1 -2437
29 -157 146 -276 301 -304 36 -7 331 -10 834 -8 l779 3 57 23 c74 30 156 105
191 174 14 29 31 85 37 123 7 47 10 455 8 1255 l-3 1185 -24 58 c-52 130 -163
217 -301 237 -81 12 -1493 11 -1573 -1z m447 -889 l26 -10 0 -285 0 -285 315
0 315 0 0 285 0 285 28 11 c34 13 126 7 146 -10 14 -12 16 -89 16 -686 0 -604
-2 -674 -16 -686 -17 -14 -140 -19 -162 -5 -9 5 -12 83 -12 322 l0 314 -315 0
-315 0 0 -314 c0 -239 -3 -317 -12 -322 -22 -14 -145 -9 -162 5 -15 12 -16 79
-14 694 l3 681 25 7 c38 11 106 10 134 -1z"/>
<path d="M3450 2535 l0 -365 40 0 40 0 0 365 0 365 -40 0 -40 0 0 -365z"/>
<path d="M3031 2666 c-51 -17 -94 -55 -124 -111 -18 -34 -22 -56 -22 -140 1
-141 32 -198 132 -235 61 -23 108 -25 185 -9 58 12 88 33 88 60 0 27 -14 30
-60 14 -23 -8 -74 -15 -113 -15 -60 0 -75 4 -103 25 -35 27 -58 83 -52 125 l3
25 161 -4 c156 -3 162 -3 173 18 17 30 -3 135 -33 181 -43 65 -147 94 -235 66z
m139 -68 c26 -16 49 -61 52 -99 l3 -34 -132 -3 c-129 -2 -133 -2 -133 18 0 55
52 124 100 133 33 6 88 -1 110 -15z"/>
<path d="M3885 2667 c-16 -8 -44 -26 -61 -40 -18 -15 -34 -27 -37 -27 -3 0 -7
15 -9 33 -3 28 -7 32 -35 35 l-33 3 0 -320 0 -321 40 0 40 0 0 95 c0 52 2 95
5 95 3 0 22 -11 43 -24 76 -51 159 -46 222 10 56 51 75 109 75 224 -1 112 -22
172 -78 214 -43 33 -126 44 -172 23z m114 -82 c38 -32 53 -78 53 -163 1 -106
-36 -176 -98 -188 -49 -9 -76 1 -123 46 l-41 40 0 97 c1 109 6 120 75 167 49
34 94 34 134 1z"/>
<path d="M4396 2665 c-21 -7 -56 -30 -76 -50 -89 -86 -93 -294 -9 -390 56 -63
186 -82 304 -43 35 11 40 17 43 46 4 37 -1 38 -54 16 -55 -23 -184 -16 -214
11 -29 26 -46 61 -53 108 l-6 37 163 0 c113 0 166 4 174 12 7 7 12 30 12 53 0
158 -135 253 -284 200z m129 -59 c41 -18 62 -48 71 -103 l7 -43 -132 0 -131 0
0 35 c0 26 9 45 36 74 45 51 89 62 149 37z"/>
<path d="M4973 2660 c-18 -11 -38 -29 -45 -40 -18 -28 -26 -25 -30 13 -3 28
-7 32 -35 35 l-33 3 0 -250 0 -251 35 0 35 0 0 158 0 159 29 39 c49 67 65 77
115 72 33 -4 46 -2 50 9 25 63 -51 96 -121 53z"/>
<path d="M5254 2670 c-18 -6 -46 -26 -63 -45 -26 -30 -31 -44 -31 -87 0 -46 4
-54 39 -89 22 -20 62 -44 90 -54 28 -9 65 -30 82 -46 25 -24 30 -34 25 -57 -4
-15 -16 -35 -28 -44 -29 -25 -122 -24 -173 2 -42 21 -57 14 -49 -23 6 -31 22
-44 69 -56 91 -23 171 -7 222 44 29 29 33 39 33 88 0 73 -22 98 -131 151 -93
46 -114 70 -97 117 7 21 20 32 48 40 38 12 69 6 143 -26 29 -12 23 51 -8 71
-29 19 -128 27 -171 14z"/>
<path d="M4310 1710 c0 -77 -3 -140 -6 -140 -3 0 -22 12 -41 28 -32 24 -45 27
-108 27 -64 0 -76 -3 -109 -29 -62 -47 -81 -101 -81 -231 0 -99 3 -115 25
-155 37 -65 79 -90 155 -90 55 0 69 4 115 35 29 19 54 35 55 35 2 0 5 -15 7
-32 3 -29 6 -33 33 -33 l30 0 3 363 2 362 -40 0 -40 0 0 -140z m-62 -180 c23
-16 46 -38 51 -49 6 -11 11 -62 11 -114 l0 -95 -45 -40 c-82 -72 -157 -63
-203 23 -24 45 -23 189 2 235 41 78 111 93 184 40z"/>
<path d="M2985 1621 c-60 -15 -95 -40 -95 -66 0 -30 1 -30 70 -4 67 26 141 22
172 -9 20 -20 40 -95 31 -117 -2 -7 -37 -14 -86 -18 -146 -10 -207 -55 -207
-152 0 -64 30 -107 86 -125 51 -17 134 -8 171 18 40 29 53 28 53 -4 0 -23 3
-25 33 -22 l32 3 0 195 c-1 214 -9 251 -63 286 -29 19 -147 28 -197 15z m177
-273 c4 -7 8 -30 8 -50 0 -73 -96 -141 -166 -118 -88 29 -82 144 8 168 54 14
141 14 150 0z"/>
<path d="M3432 1622 l-22 -3 2 -247 3 -247 40 0 40 0 3 176 2 177 45 41 c38
35 51 41 88 41 43 0 66 -15 93 -60 5 -8 11 -96 14 -195 l5 -180 35 0 35 0 0
195 c0 211 -3 227 -59 279 -52 49 -187 35 -235 -23 -19 -23 -31 -20 -31 9 0
27 -24 43 -58 37z"/>
</g>
</svg>
