<?xml version="1.0" standalone="no"?>
<!DOCTYPE svg PUBLIC "-//W3C//DTD SVG 20010904//EN"
 "http://www.w3.org/TR/2001/REC-SVG-20010904/DTD/svg10.dtd">
<svg version="1.0" xmlns="http://www.w3.org/2000/svg"
 width="1090.000000pt" height="1022.000000pt" viewBox="0 0 1090.000000 1022.000000"
 preserveAspectRatio="xMidYMid meet">

<g transform="translate(0.000000,1022.000000) scale(0.100000,-0.100000)"
fill="#000000" stroke="none">
<path d="M0 5110 l0 -5110 5450 0 5450 0 0 5110 0 5110 -5450 0 -5450 0 0
-5110z m5591 2687 c43 -28 69 -80 69 -134 0 -36 3 -43 23 -47 12 -2 66 -11
120 -20 131 -22 288 -74 422 -140 61 -30 113 -51 116 -48 4 4 19 39 33 77 32
82 63 115 110 115 49 0 75 -27 110 -116 l31 -79 74 -36 c79 -38 121 -77 121
-110 0 -41 -28 -75 -82 -99 -29 -13 -55 -25 -57 -26 -1 -2 25 -36 59 -76 222
-263 357 -586 386 -925 l7 -83 71 0 c43 0 77 -5 84 -12 19 -19 14 -98 -9 -148
-27 -60 -83 -117 -144 -146 -49 -23 -57 -24 -319 -24 l-268 0 56 -61 c97 -105
146 -230 146 -378 0 -82 -15 -111 -56 -111 -39 0 -54 35 -54 125 0 153 -66
275 -191 356 -101 65 -94 64 -737 64 l-584 0 -24 -28 c-29 -34 -31 -66 -3
-101 l20 -26 397 0 c429 0 444 -2 450 -51 7 -59 9 -59 -436 -59 -458 0 -461 1
-518 76 -26 34 -29 45 -29 116 l0 78 -285 0 c-165 0 -301 -4 -322 -10 -71 -20
-91 -94 -40 -150 24 -28 93 -52 707 -251 374 -120 712 -226 752 -234 39 -8
118 -18 175 -21 120 -8 165 -26 198 -79 12 -20 24 -53 27 -75 l6 -40 218 0
219 0 0 73 c0 80 16 117 52 117 45 0 58 -26 58 -119 0 -76 2 -88 21 -99 42
-26 49 -68 49 -288 0 -228 -7 -262 -61 -289 -42 -22 -627 -22 -669 0 -55 29
-60 52 -60 290 0 227 2 238 48 287 22 24 24 32 16 60 -13 43 -44 58 -125 58
-37 0 -106 7 -155 15 -116 20 -1475 457 -1527 491 -52 34 -92 119 -83 178 3
22 9 51 12 64 l6 22 -143 0 c-131 0 -149 2 -194 24 -61 29 -117 86 -144 146
-23 50 -28 129 -9 148 7 7 41 12 84 12 l71 0 7 83 c35 404 219 783 514 1057
48 44 98 84 111 87 32 8 55 -8 59 -40 3 -21 -19 -47 -125 -154 -139 -137 -221
-249 -300 -406 -82 -164 -140 -372 -150 -539 l-6 -88 1513 0 1513 0 -6 88
c-17 287 -152 611 -352 846 l-58 68 -19 -48 c-27 -68 -57 -96 -103 -96 -50 0
-76 28 -113 122 l-29 75 -87 42 c-65 32 -89 49 -97 70 -13 36 -4 71 28 105
l26 27 -69 32 c-100 45 -224 85 -344 110 -142 30 -418 33 -560 5 -128 -25
-283 -76 -396 -132 -97 -47 -125 -50 -143 -15 -22 41 -2 62 113 116 61 29 147
64 191 79 88 28 255 66 297 66 48 0 58 9 58 54 0 89 64 156 150 156 32 0 58
-7 81 -23z m-363 -503 c22 -15 29 -48 14 -71 -4 -7 -57 -28 -117 -48 -200 -65
-359 -168 -515 -332 -98 -104 -128 -121 -158 -91 -30 30 -13 63 79 161 159
170 343 288 559 361 58 20 107 36 110 36 3 0 16 -7 28 -16z m1563 -3354 c16
-9 19 -22 19 -76 0 -59 -2 -65 -25 -76 -18 -8 -35 -9 -53 -2 -25 9 -27 14 -30
74 -2 52 0 67 14 77 22 16 49 17 75 3z m-3730 -90 c18 -10 19 -23 19 -210 l0
-200 180 0 180 0 0 200 0 200 25 12 c19 8 31 8 50 0 l25 -12 -2 -437 -3 -438
-33 -3 c-60 -6 -62 0 -62 209 l0 189 -180 0 -180 0 -2 -197 -3 -198 -40 0 -40
0 -3 439 c-2 454 -2 455 36 456 7 0 22 -5 33 -10z m4147 -87 l3 -82 72 -3 72
-3 0 -35 0 -35 -72 -3 -73 -3 0 -262 c0 -237 2 -266 20 -304 l19 -42 -26 -21
c-33 -26 -50 -23 -77 13 -20 27 -21 43 -26 320 l-5 292 -55 5 -55 5 -3 37 -3
37 58 3 58 3 3 70 c3 94 5 97 49 93 l38 -3 3 -82z m-1254 -65 c32 -46 9 -75
-72 -93 -27 -5 -32 -10 -25 -23 4 -10 9 -124 11 -254 3 -233 3 -236 -18 -243
-12 -4 -32 -4 -46 -1 l-24 6 0 219 c0 205 -1 220 -20 244 -50 64 -240 64 -290
0 -19 -24 -20 -39 -20 -223 0 -204 7 -252 40 -270 10 -6 57 -10 104 -10 154 0
234 -33 266 -110 19 -46 9 -163 -16 -197 -46 -62 -70 -68 -291 -71 -195 -3
-201 -3 -208 17 -3 11 -1 29 5 41 10 19 20 20 176 20 221 0 254 14 254 110 0
32 -6 48 -28 69 -26 27 -33 28 -155 34 -139 6 -171 17 -211 70 -20 27 -21 43
-24 275 -3 245 -3 247 20 282 13 19 44 46 68 60 42 23 58 25 225 30 137 5 187
10 210 22 41 22 52 21 69 -4z m-948 -29 c91 -47 89 -37 89 -392 l0 -312 -40 0
-40 0 -5 296 c-6 342 -2 330 -99 350 -72 15 -174 0 -205 -31 -20 -20 -21 -33
-26 -318 l-5 -297 -40 0 -40 0 -3 300 c-1 201 1 309 9 327 31 74 120 110 261
105 78 -3 106 -9 144 -28z m1465 5 c51 -29 80 -94 77 -169 l-3 -60 -40 0 -40
0 -6 55 c-8 71 -21 95 -60 109 -60 21 -130 6 -152 -33 -8 -15 -13 -110 -17
-321 l-5 -300 -40 0 -40 0 -3 308 c-2 291 -1 309 18 347 20 39 38 54 95 77 45
19 174 11 216 -13z m1464 -4 c28 -14 60 -40 72 -59 22 -33 23 -41 23 -286 0
-246 -1 -253 -23 -286 -12 -19 -43 -45 -67 -59 -41 -23 -56 -25 -160 -25 -103
0 -120 3 -165 25 -28 14 -60 40 -72 59 -22 33 -23 42 -23 278 0 258 4 288 49
327 68 61 267 75 366 26z m-4047 8 c9 -9 12 -89 12 -298 l0 -287 23 -21 c43
-41 134 -53 222 -31 81 21 79 13 85 347 5 277 6 297 23 300 10 2 30 1 43 -2
l25 -7 -3 -309 c-3 -352 -1 -342 -94 -390 -43 -22 -60 -25 -164 -25 -99 0
-121 3 -155 22 -55 29 -85 64 -96 110 -14 61 -11 577 3 591 7 7 24 12 38 12
14 0 31 -5 38 -12z m2912 -303 c4 -275 7 -314 23 -343 15 -27 16 -36 6 -48
-39 -47 -78 -37 -103 26 -14 34 -16 88 -16 354 0 339 -2 327 55 323 l30 -2 5
-310z m-4970 -1083 c75 -37 104 -142 61 -222 -31 -60 -80 -80 -193 -80 l-98 0
0 160 0 160 98 0 c72 0 106 -4 132 -18z m968 -145 c2 -152 2 -157 -18 -157
-19 0 -20 6 -20 153 0 85 3 157 7 161 22 21 28 -11 31 -157z m967 38 c32 -69
61 -128 65 -130 4 -3 34 54 66 125 55 121 61 130 87 130 l27 0 0 -160 0 -160
-25 0 -25 0 0 133 0 132 -62 -132 c-36 -78 -67 -133 -75 -133 -8 0 -41 56 -78
133 l-64 132 0 -132 c-1 -111 -3 -133 -16 -133 -13 0 -15 24 -15 160 l0 160
28 0 c27 0 32 -8 87 -125z m3655 8 c30 -64 60 -122 65 -129 7 -11 25 19 69
116 56 122 62 130 88 130 l28 0 0 -160 0 -160 -25 0 -24 0 -3 131 -3 131 -60
-131 c-33 -72 -65 -131 -72 -131 -7 0 -43 60 -80 133 l-68 132 -3 -132 c-4
-193 -22 -170 -22 27 l0 160 28 -1 c25 0 32 -10 82 -116z m-5070 92 c10 -12
10 -18 0 -30 -7 -8 -18 -15 -25 -15 -19 0 -36 25 -29 44 8 20 38 21 54 1z
m3510 -60 c0 -9 -6 -12 -15 -9 -8 4 -22 4 -30 0 -13 -5 -12 -9 5 -26 27 -27
26 -71 -2 -98 -13 -11 -45 -24 -72 -29 -74 -12 -69 -30 9 -35 50 -3 71 -9 87
-25 27 -28 18 -67 -22 -88 -60 -31 -197 -13 -213 28 -7 18 19 57 39 57 8 0 14
5 14 10 0 6 -4 10 -10 10 -15 0 -12 26 5 40 13 11 12 14 -5 29 -32 27 -35 64
-8 95 19 22 35 29 85 35 35 4 66 10 69 14 14 14 64 7 64 -8z m-3512 -123 l3
-112 -26 0 -25 0 0 108 c0 60 3 111 6 114 3 3 13 5 22 4 15 -3 17 -19 20 -114z
m2245 89 c19 -18 23 -35 25 -111 4 -86 3 -90 -17 -90 -12 0 -21 6 -21 15 0 12
-6 11 -32 -5 -79 -48 -176 2 -148 75 12 32 38 44 110 52 54 5 60 8 60 29 0 48
-85 61 -118 19 -11 -14 -28 -25 -37 -25 -16 0 -16 2 -3 23 23 34 58 48 111 44
33 -3 56 -11 70 -26z m454 9 c5 -19 6 -19 33 2 23 16 38 20 71 15 69 -9 83
-32 87 -137 l4 -90 -26 0 -26 0 0 89 c0 68 -4 93 -16 105 -23 24 -71 20 -99
-9 -22 -22 -25 -32 -25 -105 0 -73 -2 -80 -20 -80 -19 0 -20 7 -20 115 0 99 2
115 16 115 9 0 18 -9 21 -20z m1373 5 c30 -15 60 -61 60 -90 0 -13 -17 -15
-104 -15 l-105 0 10 -32 c20 -71 89 -90 141 -38 16 17 34 30 39 30 18 0 8 -29
-17 -49 -76 -60 -196 -20 -210 71 -16 98 94 171 186 123z m1824 1 c46 -19 66
-52 66 -107 0 -39 -5 -53 -30 -78 -80 -79 -230 -28 -230 79 0 92 98 146 194
106z m486 -13 c0 -11 6 -10 26 6 31 24 64 28 64 7 0 -9 -12 -16 -27 -18 -39
-4 -63 -56 -63 -135 0 -56 -2 -63 -20 -63 -19 0 -20 7 -20 114 0 109 1 114 20
109 11 -3 20 -12 20 -20z m656 -4 c13 -13 26 -39 30 -56 l7 -33 -102 0 -101 0
0 -25 c0 -33 42 -75 74 -75 36 0 75 20 81 42 4 10 16 18 27 18 19 0 19 -2 6
-22 -52 -81 -188 -69 -224 19 -25 58 3 129 61 154 37 16 115 4 141 -22z"/>
<path d="M5474 7696 c-8 -14 -14 -35 -12 -48 3 -20 9 -23 48 -23 39 0 45 3 48
23 5 30 -23 72 -48 72 -11 0 -27 -11 -36 -24z"/>
<path d="M6454 7399 l-29 -74 -73 -36 -73 -35 70 -33 c72 -34 77 -39 117 -140
l18 -44 12 29 c57 127 51 121 126 155 l70 33 -71 33 c-66 29 -73 36 -91 80
-11 26 -26 61 -33 77 l-13 29 -30 -74z"/>
<path d="M3830 5944 c0 -20 46 -76 78 -96 l37 -23 1554 -3 1554 -2 44 21 c38
18 93 78 93 101 0 5 -756 8 -1680 8 -924 0 -1680 -3 -1680 -6z"/>
<path d="M6137 4743 c-9 -8 -9 -366 -1 -387 5 -14 40 -16 290 -16 l284 0 0
205 0 205 -283 0 c-156 0 -287 -3 -290 -7z m161 -86 c28 -22 0 -87 -39 -87
-46 0 -66 67 -28 94 21 14 42 12 67 -7z"/>
<path d="M7693 3608 c-26 -5 -50 -19 -63 -35 -19 -24 -20 -40 -20 -249 0 -217
1 -224 23 -249 52 -61 238 -60 287 2 19 24 20 39 20 248 0 207 -1 224 -20 248
-32 41 -133 57 -227 35z"/>
<path d="M1650 2151 l0 -141 60 0 c113 0 155 45 148 157 -3 53 -9 68 -31 91
-24 23 -37 27 -102 30 l-75 4 0 -141z"/>
<path d="M5688 2189 c-12 -6 -18 -22 -18 -44 0 -58 69 -86 110 -45 25 25 26
62 2 83 -21 19 -68 22 -94 6z"/>
<path d="M5692 2000 c-68 -16 -71 -57 -6 -79 34 -12 47 -12 85 0 36 11 45 19
47 41 3 23 -2 28 -35 37 -42 12 -45 12 -91 1z"/>
<path d="M4470 2097 c-32 -16 -40 -65 -14 -84 45 -33 114 5 114 63 0 33 -1 34
-37 34 -21 0 -49 -6 -63 -13z"/>
<path d="M6305 2175 c-45 -44 -35 -55 56 -55 79 0 80 0 74 23 -17 57 -88 75
-130 32z"/>
<path d="M8123 2176 c-24 -21 -28 -31 -27 -77 0 -44 5 -56 28 -76 38 -32 80
-30 117 6 43 43 38 121 -10 158 -27 21 -77 15 -108 -11z"/>
<path d="M9245 2175 c-45 -44 -35 -55 55 -55 65 0 80 3 80 15 0 27 -47 65 -80
65 -19 0 -40 -9 -55 -25z"/>
</g>
</svg>
