<?xml version="1.0" standalone="no"?>
<!DOCTYPE svg PUBLIC "-//W3C//DTD SVG 20010904//EN"
 "http://www.w3.org/TR/2001/REC-SVG-20010904/DTD/svg10.dtd">
<svg version="1.0" xmlns="http://www.w3.org/2000/svg"
 width="2000.000000pt" height="1500.000000pt" viewBox="0 0 2000.000000 1500.000000"
 preserveAspectRatio="xMidYMid meet">

<g transform="translate(0.000000,1500.000000) scale(0.100000,-0.100000)"
fill="#000000" stroke="none">
<path d="M3500 9669 c-454 -96 -799 -473 -860 -939 -13 -100 -13 -2360 0
-2460 33 -253 145 -476 328 -652 145 -139 303 -229 496 -281 l81 -22 1765 -3
c1263 -2 1788 0 1845 8 44 6 121 25 170 41 357 119 622 399 723 767 l27 97 0
1275 0 1275 -27 97 c-99 361 -356 637 -706 762 -163 58 -89 56 -1996 55 -1708
0 -1753 -1 -1846 -20z m3669 -329 c233 -56 436 -233 528 -460 53 -132 53 -139
51 -955 l-3 -756 -263 230 c-144 127 -272 237 -284 246 -13 8 -43 15 -69 15
-45 0 -63 -11 -475 -298 -236 -164 -451 -313 -478 -331 l-48 -33 -792 790
c-534 534 -800 793 -818 797 -73 18 -78 15 -826 -463 -397 -254 -725 -462
-728 -462 -3 0 -4 240 -2 533 4 593 3 577 77 732 100 208 280 357 501 415 73
18 127 19 1810 19 1703 1 1737 0 1819 -19z m-1919 -1844 c836 -835 817 -817
888 -801 15 3 241 154 502 336 261 181 478 328 483 326 5 -1 148 -124 318
-272 l309 -270 0 -250 c0 -268 -8 -332 -53 -445 -42 -102 -88 -171 -177 -260
-101 -102 -217 -168 -351 -200 -82 -19 -117 -20 -1815 -20 -1696 0 -1732 0
-1810 20 -224 56 -404 205 -505 415 -75 156 -74 146 -74 739 l0 530 740 473
c407 260 742 473 745 473 3 0 363 -357 800 -794z"/>
<path d="M6195 8934 c-428 -96 -652 -569 -450 -952 84 -161 216 -272 390 -329
101 -33 263 -37 364 -9 233 64 414 247 476 481 20 78 20 241 0 320 -55 217
-224 399 -434 468 -107 36 -244 44 -346 21z m273 -275 c102 -35 179 -107 230
-217 24 -50 27 -69 27 -157 0 -93 -2 -105 -32 -165 -41 -85 -111 -155 -193
-194 -60 -29 -73 -31 -170 -31 -93 0 -112 3 -162 27 -117 55 -205 169 -229
299 -46 251 173 485 431 461 25 -3 69 -13 98 -23z"/>
<path d="M16101 8736 c-32 -18 -50 -53 -51 -99 0 -31 7 -46 34 -73 29 -29 41
-34 81 -34 40 0 52 5 81 34 74 74 25 187 -81 186 -22 -1 -51 -7 -64 -14z"/>
<path d="M8680 7640 l0 -1000 105 0 105 0 0 1000 0 1000 -105 0 -105 0 0
-1000z"/>
<path d="M11526 8339 c-79 -11 -167 -47 -209 -87 -74 -70 -107 -187 -107 -377
l0 -115 94 0 94 0 4 148 c6 169 21 225 74 271 41 36 89 51 170 51 121 0 205
-47 233 -129 16 -48 14 -178 -4 -238 -27 -91 -89 -138 -350 -271 -199 -101
-304 -197 -337 -305 -19 -61 -18 -419 1 -472 36 -103 108 -165 215 -184 204
-37 388 35 464 184 l21 40 1 -107 0 -108 100 0 101 0 -3 743 -3 742 -26 56
c-45 96 -130 142 -292 159 -106 11 -145 11 -241 -1z m355 -1265 c-14 -114 -45
-190 -100 -245 -52 -53 -95 -69 -187 -69 -104 0 -156 27 -197 105 -20 37 -22
55 -22 220 l0 180 30 54 c40 72 121 138 283 230 72 40 145 89 164 108 l33 34
3 -268 c1 -147 -2 -304 -7 -349z"/>
<path d="M12665 8341 c-123 -20 -203 -80 -246 -187 l-24 -59 -3 -515 c-2 -348
1 -536 8 -579 23 -134 90 -222 194 -258 78 -27 243 -24 318 5 63 25 121 79
156 144 l22 43 -2 -180 c-3 -163 -5 -185 -26 -230 -29 -64 -55 -91 -117 -123
-48 -26 -57 -27 -205 -27 -85 0 -174 3 -197 8 l-43 7 0 -59 c0 -72 -11 -68
225 -77 139 -6 181 -4 232 9 90 24 152 58 205 114 80 86 114 175 128 337 5 61
10 445 10 854 l0 743 -92 -3 -93 -3 -10 -60 -10 -59 -23 31 c-29 41 -104 90
-165 108 -62 18 -178 26 -242 16z m236 -141 c66 -13 119 -47 160 -103 l30 -42
-3 -490 c-4 -561 -4 -560 -88 -646 -48 -50 -94 -69 -165 -69 -108 1 -183 42
-219 119 -21 45 -21 57 -21 556 0 464 2 514 18 556 40 104 142 146 288 119z"/>
<path d="M9684 8319 c-70 -22 -147 -84 -179 -143 -11 -20 -22 -36 -26 -36 -3
0 -10 37 -15 83 l-9 82 -87 3 -88 3 0 -836 0 -835 105 0 105 0 2 698 3 697 35
48 c49 69 102 97 192 104 125 9 197 -25 234 -109 18 -40 19 -86 22 -740 l3
-698 99 0 100 0 0 668 c0 743 -1 727 66 796 61 62 107 81 204 81 110 0 154
-21 190 -91 l25 -48 3 -703 3 -703 99 0 100 0 0 713 c0 562 -3 723 -14 762
-43 164 -123 218 -326 219 -104 1 -120 -1 -170 -25 -73 -34 -123 -79 -162
-144 l-32 -53 -22 55 c-26 63 -63 107 -114 133 -85 43 -243 52 -346 19z"/>
<path d="M13862 8325 c-129 -28 -204 -87 -239 -189 -16 -47 -18 -101 -18 -641
0 -530 2 -596 17 -646 54 -172 170 -233 443 -233 179 0 258 23 332 99 77 79
94 142 101 358 l4 167 -100 0 -100 0 -4 -177 c-3 -165 -5 -182 -28 -228 -37
-74 -84 -95 -215 -95 -117 0 -174 21 -212 78 -36 55 -43 119 -43 407 l0 275
350 0 350 0 0 265 c0 278 -7 338 -45 415 -39 76 -91 112 -202 141 -92 23 -293
25 -391 4z m340 -138 c79 -40 98 -112 98 -379 l0 -198 -251 0 -251 0 4 223 c3
200 5 226 24 267 41 88 93 111 239 107 72 -2 110 -7 137 -20z"/>
<path d="M15204 8320 c-94 -33 -157 -87 -186 -157 l-11 -28 -7 40 c-4 22 -11
61 -14 88 l-7 47 -85 0 -84 0 0 -835 0 -835 105 0 105 0 0 698 0 698 29 47
c54 84 150 125 264 112 77 -8 105 -20 145 -58 62 -60 62 -58 62 -814 l0 -683
106 0 105 0 -4 698 c-4 757 -5 771 -60 865 -56 95 -154 137 -315 136 -67 0
-113 -6 -148 -19z"/>
<path d="M16853 8325 c-129 -29 -202 -89 -240 -198 -17 -48 -18 -98 -18 -632
0 -579 0 -580 23 -654 31 -97 97 -167 186 -195 132 -41 338 -44 467 -6 89 26
165 105 194 204 19 63 35 204 35 314 l0 82 -104 0 -104 0 -4 -182 c-5 -199
-14 -237 -63 -277 -44 -34 -91 -43 -199 -39 -114 4 -155 20 -192 76 -35 51
-44 140 -44 420 l0 262 356 0 356 0 -4 278 c-5 251 -7 284 -28 346 -30 94 -81
148 -175 183 -62 23 -87 26 -225 29 -108 3 -174 -1 -217 -11z m347 -140 c22
-13 44 -38 60 -70 24 -48 25 -58 28 -277 l3 -228 -251 0 -252 0 5 218 c5 233
12 275 55 323 42 46 91 60 212 57 83 -3 112 -7 140 -23z"/>
<path d="M16060 7475 l0 -835 100 0 100 0 0 835 0 835 -100 0 -100 0 0 -835z"/>
</g>
</svg>
