<?xml version="1.0" standalone="no"?>
<!DOCTYPE svg PUBLIC "-//W3C//DTD SVG 20010904//EN"
 "http://www.w3.org/TR/2001/REC-SVG-20010904/DTD/svg10.dtd">
<svg version="1.0" xmlns="http://www.w3.org/2000/svg"
 width="2000.000000pt" height="1500.000000pt" viewBox="0 0 2000.000000 1500.000000"
 preserveAspectRatio="xMidYMid meet">

<g transform="translate(0.000000,1500.000000) scale(0.100000,-0.100000)"
fill="#000000" stroke="none">
<path d="M12630 8427 c-91 -26 -154 -80 -166 -143 -16 -84 28 -155 118 -194
45 -19 65 -22 147 -18 83 3 103 8 151 33 30 17 65 45 77 64 56 83 4 198 -109
245 -50 21 -165 28 -218 13z"/>
<path d="M3874 8270 c-15 -6 -29 -29 -44 -77 -28 -85 -299 -765 -309 -775 -3
-4 -87 184 -186 417 l-180 425 -314 0 c-246 0 -312 -3 -308 -12 22 -55 740
-1655 745 -1660 4 -3 119 271 256 610 137 339 287 708 333 820 46 112 83 208
83 213 0 11 -37 49 -47 48 -5 0 -18 -4 -29 -9z"/>
<path d="M12160 8267 c-15 -8 -29 -29 -38 -57 -26 -82 -314 -801 -319 -796 -3
2 -85 193 -182 423 l-178 418 -311 3 c-172 1 -312 -1 -312 -5 0 -19 746 -1671
751 -1665 4 4 144 347 312 762 168 415 315 777 327 803 37 84 11 144 -50 114z"/>
<path d="M6790 7450 l0 -810 235 0 c228 0 235 1 235 20 0 25 -2 25 84 -6 85
-30 198 -42 318 -32 278 24 496 217 554 488 21 100 14 269 -15 362 -29 89
-110 209 -180 264 -134 107 -272 148 -471 141 -123 -4 -154 -11 -272 -62 -17
-7 -18 7 -18 219 l0 226 -235 0 -235 0 0 -810z m868 -202 l2 -548 -72 0 c-91
0 -191 21 -268 56 l-60 27 2 465 3 465 56 28 c84 43 153 58 249 56 l85 -2 3
-547z"/>
<path d="M10150 7450 l0 -810 245 0 245 0 0 810 0 810 -245 0 -245 0 0 -810z"/>
<path d="M13340 7450 l0 -810 235 0 c233 0 235 0 235 21 0 16 5 20 18 16 151
-50 190 -58 299 -58 66 0 139 7 180 16 224 52 405 232 457 455 20 84 20 256 1
339 -38 160 -155 306 -306 380 -116 57 -203 74 -359 68 -125 -4 -133 -6 -272
-62 -17 -7 -18 8 -18 219 l0 226 -235 0 -235 0 0 -810z m868 -202 l2 -548 -72
0 c-86 0 -179 20 -265 56 l-63 26 0 463 0 462 59 31 c84 45 153 61 251 59 l85
-2 3 -547z"/>
<path d="M4560 7860 c-238 -62 -418 -242 -465 -466 -31 -148 -14 -308 48 -433
48 -100 167 -215 277 -268 118 -57 195 -74 342 -74 202 1 356 55 475 166 48
46 54 56 51 86 -3 29 -7 34 -31 37 -23 3 -41 -9 -98 -62 -121 -115 -228 -152
-412 -143 -60 2 -113 9 -118 14 -5 5 -8 110 -7 249 l3 239 376 3 376 2 6 35
c9 52 -9 192 -32 259 -60 170 -229 317 -413 361 -92 22 -284 19 -378 -5z m363
-75 c15 -6 17 -28 17 -251 l0 -245 -157 3 -158 3 -3 243 -2 243 22 9 c26 11
253 7 281 -5z"/>
<path d="M6443 7865 c-77 -33 -178 -158 -243 -299 l-29 -61 0 178 -1 177 -245
0 -245 0 0 -610 0 -610 244 0 244 0 4 313 c5 295 6 317 30 408 42 155 124 301
190 335 27 14 36 14 93 -1 57 -16 64 -16 93 -1 64 33 80 109 33 157 -25 25
-37 29 -83 29 -29 -1 -68 -7 -85 -15z"/>
<path d="M8885 7863 c-93 -20 -218 -69 -255 -100 -42 -35 -39 -83 5 -96 21 -7
33 -1 106 47 76 51 178 78 314 82 75 3 142 0 180 -8 l60 -13 3 -159 c2 -148 1
-158 -15 -153 -136 44 -173 50 -293 50 -183 1 -306 -39 -411 -132 -185 -162
-185 -463 -2 -631 99 -91 215 -130 383 -131 119 0 191 16 280 61 l60 30 0 -35
0 -35 245 0 245 0 0 398 c0 417 -5 479 -48 575 -57 129 -204 218 -419 253
-114 18 -347 17 -438 -3z m200 -433 c39 -6 103 -22 143 -36 l72 -26 0 -279 0
-279 -47 -30 c-66 -42 -146 -70 -220 -77 l-63 -6 0 366 c0 371 0 374 35 376 6
0 42 -4 80 -9z"/>
<path d="M15462 7861 c-231 -57 -410 -231 -467 -456 -20 -78 -20 -249 1 -328
27 -103 70 -175 158 -262 141 -141 283 -196 501 -195 67 0 151 7 190 15 178
38 370 184 341 260 -12 34 -57 16 -127 -49 -118 -112 -239 -153 -419 -143 -54
3 -104 8 -109 12 -7 4 -11 89 -11 251 l0 244 380 0 380 0 0 88 c0 172 -49 293
-164 408 -78 77 -173 132 -281 159 -83 21 -278 19 -373 -4z m361 -76 c15 -6
17 -28 17 -251 l0 -244 -160 0 -160 0 0 249 0 250 23 5 c33 7 259 0 280 -9z"/>
<path d="M16816 7865 c-125 -32 -248 -122 -287 -210 -47 -105 -31 -211 48
-328 54 -80 148 -170 344 -327 80 -65 157 -132 172 -150 28 -33 34 -68 17
-100 -30 -56 -230 -73 -365 -32 -61 19 -91 35 -192 108 -17 12 -26 13 -42 4
-34 -18 -27 -62 14 -99 87 -76 213 -112 395 -112 209 0 348 49 453 160 76 80
100 147 95 266 -3 76 -8 98 -33 145 -38 70 -161 193 -295 294 -133 101 -183
145 -220 191 -77 97 -1 152 170 126 85 -14 143 -37 218 -89 61 -41 85 -37 90
16 4 39 -37 72 -145 115 -73 29 -87 31 -228 34 -107 2 -167 -2 -209 -12z"/>
<path d="M12470 7250 l0 -610 245 0 245 0 0 610 0 610 -245 0 -245 0 0 -610z"/>
</g>
</svg>
